<svg width="1115" height="119" viewBox="0 0 1115 119" fill="none" xmlns="http://www.w3.org/2000/svg">
<path d="M2.48728 5.6082H106.95C127.143 5.6082 143.52 19.1232 143.52 35.8182C143.52 42.9732 140.499 49.8102 134.775 55.3752L133.026 56.9652L135.252 58.2372C145.11 63.9612 150.993 73.1832 150.993 83.0412C150.993 99.7362 134.457 113.251 114.264 113.251H2.48728V5.6082ZM39.6933 48.8562H95.3433C101.385 48.8562 106.473 44.5632 106.473 39.3162C106.473 34.0692 101.385 29.7762 95.3433 29.7762H39.6933V48.8562ZM39.6933 89.0832H102.657C108.858 89.0832 113.787 84.7902 113.787 79.5432C113.787 74.2962 108.858 70.0032 102.657 70.0032H39.6933V89.0832ZM0.738281 115L114.264 115.159C135.57 115.159 152.742 100.69 152.742 83.0412C152.742 72.0702 146.223 62.3712 136.206 56.6472C141.93 51.0822 145.269 43.7682 145.269 35.8182C145.269 18.1692 128.097 3.8592 106.95 3.8592L0.738281 3.7002V115ZM41.4423 31.6842H95.3433C100.431 31.6842 104.565 35.0232 104.565 39.3162C104.565 43.6092 100.431 47.1072 95.3433 47.1072H41.4423V31.6842ZM41.4423 71.7522H102.657C107.745 71.7522 111.879 75.2502 111.879 79.5432C111.879 83.8362 107.745 87.3342 102.657 87.3342H41.4423V71.7522Z" fill="white"/>
<path d="M205.836 5.6082V89.0832H298.533V113.251H168.63V5.6082H205.836ZM166.881 3.8592V115.159H300.282V87.3342H207.585V3.8592H166.881Z" fill="white"/>
<path d="M451.19 5.6082L394.109 50.7642L392.36 52.0362L393.95 53.4672L455.642 113.251H409.055L367.874 73.3422L366.761 72.2292L365.489 73.3422L351.497 84.3132L350.861 84.9492V113.251H313.655V5.6082H350.861V48.5382L353.723 46.3122L405.239 5.6082H451.19ZM404.603 3.8592L352.61 44.7222V3.8592H311.906V115.159H352.61V85.7442L366.602 74.7732L408.26 115.159H460.253L395.222 52.1952L456.437 3.8592H404.603Z" fill="white"/>
<path d="M657.587 45.5172H534.362C514.328 45.5172 502.244 45.6762 502.244 36.2952C502.244 28.5042 514.805 28.5042 534.362 28.5042H657.587C677.621 28.5042 690.5 28.5042 690.5 40.9062H724.526C724.526 6.88021 700.835 0.679199 657.587 0.679199H534.362C492.863 0.679199 467.9 6.88021 467.9 36.2952C467.9 65.5512 492.704 70.1622 534.362 70.1622L657.587 70.3212C677.303 70.3212 691.772 70.1622 691.772 81.1332C691.772 90.3552 677.144 90.3552 657.587 90.3552H534.362C514.487 90.3552 500.336 90.3552 500.336 77.9532H466.469C466.469 111.979 491.114 118.18 534.362 118.18H657.587C699.086 118.18 726.116 111.979 726.116 81.1332C726.116 50.1282 699.086 45.5172 657.587 45.5172Z" fill="white"/>
<path d="M887.661 3.8592L865.56 70.1622L843.459 3.8592H814.362L792.261 70.1622L770.16 3.8592H733.113L770.16 115.159H807.207L828.831 50.1282L850.455 115.159H887.661L924.708 3.8592H887.661Z" fill="white"/>
<path d="M1034.07 3.8592V73.3422L972.221 3.8592H935.174V115.159H969.041V49.0152L1027.87 115.159H1068.1V3.8592H1034.07Z" fill="white"/>
<path d="M1107.23 17.2002C1107.44 16.7682 1107.52 16.1922 1107.52 15.6882C1107.52 15.1842 1107.44 14.6802 1107.23 14.1762C1107.01 13.6722 1106.72 13.3122 1106.36 12.9522C1106 12.5922 1105.57 12.3042 1105.14 12.0882C1104.64 11.8722 1104.13 11.8002 1103.63 11.8002H1095.92V22.3842H1099.09V19.6482H1102.62L1103.99 22.3842H1107.52L1105.79 18.9282C1106 18.7842 1106.22 18.6402 1106.36 18.4962C1106.72 18.1362 1107.01 17.7042 1107.23 17.2002ZM1102.98 17.0562H1099.09V14.3202H1102.98C1103.7 14.3202 1104.35 14.9682 1104.35 15.6882C1104.35 16.4802 1103.7 17.0562 1102.98 17.0562ZM1113.06 12.3042C1112.41 10.7922 1111.55 9.4962 1110.4 8.2722C1109.17 7.1202 1107.88 6.2562 1106.36 5.6082C1104.78 4.9602 1103.12 4.6002 1101.47 4.6002C1099.74 4.6002 1098.08 4.9602 1096.5 5.6082C1095.06 6.2562 1093.69 7.1202 1092.54 8.2722C1091.39 9.4962 1090.45 10.7922 1089.8 12.3042C1089.16 13.8882 1088.87 15.5442 1088.87 17.2002C1088.87 18.9282 1089.16 20.5842 1089.8 22.1682C1090.45 23.6082 1091.39 24.9762 1092.54 26.1282C1093.69 27.2802 1095.06 28.2162 1096.5 28.8642C1098.08 29.5122 1099.74 29.8722 1101.47 29.8722C1103.12 29.8722 1104.78 29.5122 1106.36 28.8642C1107.88 28.2162 1109.17 27.2802 1110.4 26.1282C1111.55 24.9762 1112.41 23.6082 1113.06 22.1682C1113.71 20.5842 1114.07 18.9282 1114.07 17.2002C1114.07 15.5442 1113.71 13.8882 1113.06 12.3042ZM1101.47 26.7762C1096.14 26.7762 1091.89 22.5282 1091.89 17.2002C1091.89 11.9442 1096.14 7.6242 1101.47 7.6242C1106.72 7.6242 1111.04 11.9442 1111.04 17.2002C1111.04 22.5282 1106.72 26.7762 1101.47 26.7762Z" fill="white"/>
</svg>
